:SAMPLES-PER-SECOND 30
:FULLY-SPECIFIED
:DEGREES
16
root  79.386 40.3401 -4.84521 127.175 -88.4471 -126.915
RightUpLeg  2.40215 -8.1915 -6.15595
RightLeg  1.53109 -3.20217 3.59717
RightFoot  -1.32726 -0.0460619 0.42214
RightToes  0.000482159 0.542163 -0.142577
Spine  2.59361 -0.737047 0.0167469
Spine1  3.19043 -0.74056 -0.30356
HEad  0.94386 2.96237 0.512551
LeftShoulder1  0.781992 -0.0781122 -14.7703
LeftArm  -20.2893 5.24357 -3.71194
LeftForeArm  10.1858 -1.50958 -1.10807
LeftHand  -0.25398 0.0180481 5.50724
RightShoulder  0.737451 0.415825 11.6963
RightArm  -23.654 -2.20715 3.89454
RightForeArm  -1.72708 2.02766 2.32415
RightHand  -1.69745 5.75913 -17.9242
LeftUpLeg  2.41229 6.75134 4.98425
LeftLeg  3.84889 16.8648 -3.38326
LeftFoot  -5.99183 0.0947739 -0.965401
LeftToes  1.06246e-005 4.65855e-005 -8.18504e-006
17
root  79.3326 40.3236 -4.69316 127.323 -88.4122 -127.231
RightUpLeg  2.56251 -8.31072 -6.40793
RightLeg  1.75808 -3.0949 3.54728
RightFoot  -1.419 -0.0522964 0.490316
RightToes  0.000482159 0.542163 -0.142577
Spine  2.60294 -0.650265 0.125822
Spine1  3.44712 -0.663281 -0.252417
HEad  1.74213 2.79303 0.719713
LeftShoulder1  0.927483 -0.54886 -15.9407
LeftArm  -20.9216 5.46761 -4.20202
LeftForeArm  10.363 -2.18804 -0.937481
LeftHand  -0.25398 0.0180481 5.50724
RightShoulder  0.861973 0.783549 13.1158
RightArm  -23.7992 -3.08446 4.44731
RightForeArm  -2.33016 3.10925 2.43814
RightHand  -1.72873 5.82005 -18.1481
LeftUpLeg  2.587 6.73618 4.80945
LeftLeg  4.09956 16.9255 -3.36284
LeftFoot  -6.42321 0.0873418 -0.84989
LeftToes  1.06246e-005 4.65855e-005 -8.18504e-006
18
root  79.2727 40.3006 -4.51195 126.846 -88.442 -127.021
RightUpLeg  2.77425 -8.50458 -6.80739
RightLeg  2.14899 -2.79565 3.51099
RightFoot  -1.65593 -0.0757682 0.762615
RightToes  0.000482159 0.542163 -0.142577
Spine  2.60883 -0.572327 0.32911
Spine1  3.81151 -0.566609 -0.360578
HEad  2.77121 2.48578 0.835518
LeftShoulder1  1.12865 -1.14713 -17.4651
LeftArm  -21.6114 5.60805 -4.9081
LeftForeArm  10.8774 -3.06105 -0.790569
LeftHand  -0.25398 0.0180481 5.50724
RightShoulder  1.05373 1.36247 14.8253
RightArm  -23.4395 -4.51179 5.12491
RightForeArm  -2.51279 4.64345 2.70564
RightHand  -1.74675 5.81373 -18.34
LeftUpLeg  2.79218 6.66429 4.53545
LeftLeg  4.52105 16.9585 -3.26239
LeftFoot  -6.88748 0.0803053 -0.740531
LeftToes  1.06246e-005 4.65855e-005 -8.18504e-006
19
root  79.2129 40.2574 -4.30997 124.983 -88.5878 -125.553
RightUpLeg  2.92048 -8.72082 -7.34171
RightLeg  2.98108 -2.49469 3.39294
RightFoot  -2.15155 -0.130829 1.44728
RightToes  0.000482159 0.542163 -0.142577
Spine  2.74155 -0.549061 0.507535
Spine1  4.27099 -0.508284 -0.611165
HEad  3.7552 2.2686 0.791477
LeftShoulder1  1.36212 -1.74961 -19.2786
LeftArm  -22.2475 5.51322 -5.93269
LeftForeArm  11.8601 -3.89598 -0.691067
LeftHand  -0.25398 0.0180481 5.50724
RightShoulder  1.27122 1.94866 16.6495
RightArm  -22.8 -6.29786 6.33127
RightForeArm  -2.68315 6.59125 3.1067
RightHand  -1.75826 5.65669 -18.7054
LeftUpLeg  2.98185 6.59857 4.18033
LeftLeg  5.26628 16.8883 -3.09188
LeftFoot  -7.49586 0.0678752 -0.547351
LeftToes  1.06246e-005 4.65855e-005 -8.18504e-006
20
root  79.1671 40.1891 -4.108 122.588 -88.7581 -123.659
RightUpLeg  2.71176 -9.11051 -7.81134
RightLeg  4.72673 -2.2899 3.03694
RightFoot  -2.94886 -0.161029 1.91406
RightToes  0.000482159 0.542163 -0.142577
Spine  3.20587 -0.558064 0.564557
Spine1  4.62791 -0.496543 -0.869363
HEad  4.54817 2.27214 0.726554
LeftShoulder1  1.62072 -2.33213 -21.263
LeftArm  -22.7658 5.20768 -7.45746
LeftForeArm  12.8215 -4.49576 -0.641473
LeftHand  -0.25398 0.0180481 5.50724
RightShoulder  1.4966 2.46745 18.5435
RightArm  -21.947 -8.19651 8.16
RightForeArm  -2.83484 8.5915 3.5782
RightHand  -1.7839 5.50027 -19.2242
LeftUpLeg  3.17861 6.70766 3.93099
LeftLeg  6.2669 16.557 -3.00213
LeftFoot  -8.31569 0.0611233 -0.455181
LeftToes  1.06246e-005 4.65855e-005 -8.18504e-006
21
root  79.1437 40.1041 -3.91418 125.026 -88.7857 -126.612
RightUpLeg  1.79291 -10.3801 -8.05074
RightLeg  7.72103 -1.28216 2.25909
RightFoot  -3.88044 -0.16911 2.20007
RightToes  0.000482159 0.542163 -0.142577
Spine  3.98175 -0.542571 0.578417
Spine1  4.80497 -0.475316 -1.1188
HEad  5.2578 2.41653 0.683289
LeftShoulder1  1.94963 -3.03184 -23.4506
LeftArm  -23.0391 4.87119 -9.40784
LeftForeArm  13.1356 -4.77348 -0.665191
LeftHand  -0.25398 0.0180481 5.50724
RightShoulder  1.77587 3.07863 20.5988
RightArm  -20.7331 -10.1461 10.3281
RightForeArm  -2.04834 10.3174 3.99913
RightHand  -1.82646 5.64675 -19.4201
LeftUpLeg  3.39132 7.0256 3.86924
LeftLeg  7.30679 16.1006 -3.05896
LeftFoot  -9.25098 0.0673251 -0.653853
LeftToes  1.06246e-005 4.65855e-005 -8.18504e-006
